<?xml version="1.0" standalone="no"?>
<!DOCTYPE svg PUBLIC "-//W3C//DTD SVG 20010904//EN"
 "http://www.w3.org/TR/2001/REC-SVG-20010904/DTD/svg10.dtd">
<svg version="1.0" xmlns="http://www.w3.org/2000/svg"
 width="1280.000000pt" height="1192.000000pt" viewBox="0 0 1280.000000 1192.000000"
 preserveAspectRatio="xMidYMid meet">
<metadata>
Created by potrace 1.15, written by Peter Selinger 2001-2017
</metadata>
<g transform="translate(0.000000,1192.000000) scale(0.100000,-0.100000)"
fill="#000000" stroke="none">
<path d="M6310 11873 c-120 -73 -462 -246 -620 -313 -591 -252 -1172 -398
-1860 -467 -248 -25 -854 -24 -1100 0 -583 59 -1034 161 -1568 354 -88 32
-157 52 -162 47 -18 -18 -155 -275 -245 -459 -411 -840 -645 -1681 -732 -2632
-24 -263 -24 -901 1 -1168 78 -868 276 -1629 622 -2402 702 -1568 1977 -2945
3604 -3891 628 -365 1265 -650 1992 -891 l157 -52 186 61 c1954 643 3615 1817
4736 3346 773 1056 1257 2245 1419 3488 43 335 54 516 54 926 0 423 -11 599
-59 956 -106 784 -336 1537 -690 2259 -91 184 -227 441 -245 459 -5 5 -74 -15
-162 -47 -752 -272 -1465 -391 -2243 -374 -804 18 -1541 172 -2255 473 -155
65 -480 226 -619 308 -62 36 -119 66 -125 65 -6 0 -45 -21 -86 -46z"/>
</g>
</svg>
